<?xml version="1.0" standalone="no"?><!DOCTYPE svg PUBLIC "-//W3C//DTD SVG 1.1//EN" "http://www.w3.org/Graphics/SVG/1.1/DTD/svg11.dtd"><svg width="19px" height="19px" viewBox="0 0 32 32" version="1.1" xmlns:xlink="http://www.w3.org/1999/xlink" xmlns="http://www.w3.org/2000/svg"><defs xmlns="http://www.w3.org/1999/xhtml"><style type="text/css"><![CDATA[]]></style></defs>
              <g id="Symbols" stroke="none" stroke-width="1" fill="none" fill-rule="evenodd">
                  <g id="Navigation-/-Top-Nav-(Reporting-selected)" transform="translate(-14.000000, -14.000000)" fill="#1B1838">
                      <g id="Navigation-/-Top-Nav-/-Default">
                          <g id="Logo" transform="translate(14.000000, 14.000000)">
                              <path d="M27.1890778,27.4370299 C24.3040319,30.2598643 20.3551936,32 16,32 C7.16346507,32 0,24.8365349 0,16 C0,7.16346507 7.16346507,0 16,0 C24.8365349,0 32,7.16346507 32,16 C32,20.4712495 30.1659721,24.5141078 27.2091337,27.4173573 L24.7658283,21.2953293 C25.7086467,19.7416367 26.251497,17.9182116 26.251497,15.9680639 C26.251497,10.2886707 21.6474571,5.68463074 15.9680639,5.68463074 C10.2886707,5.68463074 5.68463074,10.2886707 5.68463074,15.9680639 C5.68463074,21.6474571 10.2886707,26.251497 15.9680639,26.251497 C17.7060918,26.251497 19.3433932,25.8203593 20.7788583,25.0591297 L27.1890778,27.4370299 Z M15.8722555,20.3113772 C13.4205828,20.3113772 11.4331337,18.3239281 11.4331337,15.8722555 C11.4331337,13.4205828 13.4205828,11.4331337 15.8722555,11.4331337 C18.3239281,11.4331337 20.3113772,13.4205828 20.3113772,15.8722555 C20.3113772,18.3239281 18.3239281,20.3113772 15.8722555,20.3113772 Z"/>
                          </g>
                      </g>
                  </g>
              </g>
          </svg>